# Blender 3.4.1
# www.blender.org
mtllib platform.mtl
o Cube.001
v -1.500000 -0.250000 1.500000
v -1.500000 0.250000 1.500000
v -1.500000 -0.250000 -1.500000
v -1.500000 0.250000 -1.500000
v 1.500000 -0.250000 1.500000
v 1.500000 0.250000 1.500000
v 1.500000 -0.250000 -1.500000
v 1.500000 0.250000 -1.500000
vn -1.0000 -0.0000 -0.0000
vn -0.0000 -0.0000 -1.0000
vn 1.0000 -0.0000 -0.0000
vn -0.0000 -0.0000 1.0000
vn -0.0000 -1.0000 -0.0000
vn -0.0000 1.0000 -0.0000
vt 0.375000 0.000000
vt 0.375000 1.000000
vt 0.125000 0.750000
vt 0.625000 0.000000
vt 0.625000 1.000000
vt 0.875221 0.500499
vt 0.375000 0.250000
vt 0.125000 0.500000
vt 0.625000 0.250000
vt 0.721546 0.403732
vt 0.375000 0.750000
vt 0.625000 0.750000
vt 0.778454 0.846268
vt 0.375000 0.500000
vt 0.625000 0.500000
vt 0.624779 0.749501
s 0
f 1/1/1 2/4/1 4/9/1 3/7/1
f 3/7/2 4/9/2 8/15/2 7/14/2
f 7/14/3 8/15/3 6/12/3 5/11/3
f 5/11/4 6/12/4 2/5/4 1/2/4
f 3/8/5 7/14/5 5/11/5 1/3/5
f 8/16/6 4/10/6 2/6/6 6/13/6
