# Blender 3.4.1
# www.blender.org
mtllib wallTall.mtl
o Plane
v -1.500000 -2.500000 -0.033334
v 1.500000 -2.500000 -0.033334
v -1.500000 2.500000 -0.033333
v 1.500000 2.500000 -0.033333
v -1.500000 2.500000 -0.033333
v -1.500000 -2.500000 -0.033334
v 1.500000 -2.500000 -0.033334
v 1.500000 2.500000 -0.033333
v -1.500000 2.500000 0.066667
v -1.500000 -2.500000 0.066666
v 1.500000 -2.500000 0.066666
v 1.500000 2.500000 0.066667
vn -0.0000 -0.0000 -1.0000
vn 1.0000 -0.0000 -0.0000
vn -0.0000 1.0000 -0.0000
vn -0.0000 -0.0000 1.0000
vn -1.0000 -0.0000 -0.0000
vn -0.0000 -1.0000 -0.0000
vt 0.000000 0.000000
vt 1.000000 0.000000
vt 0.000000 1.000000
vt 1.000000 1.000000
vt 0.000000 1.000000
vt 0.000000 0.000000
vt 1.000000 0.000000
vt 1.000000 1.000000
vt 0.000000 1.000000
vt 0.000000 0.000000
vt 1.000000 0.000000
vt 1.000000 1.000000
s 0
usemtl Material.005
f 1/1/1 3/3/1 4/4/1 2/2/1
f 7/7/2 8/8/2 12/12/2 11/11/2
f 2/2/3 4/4/3 8/8/3 7/7/3
f 3/3/3 1/1/3 6/6/3 5/5/3
f 4/4/3 3/3/3 5/5/3 8/8/3
f 1/1/3 2/2/3 7/7/3 6/6/3
f 10/10/4 11/11/4 12/12/4 9/9/4
f 5/5/5 6/6/5 10/10/5 9/9/5
f 8/8/3 5/5/3 9/9/3 12/12/3
f 6/6/6 7/7/6 11/11/6 10/10/6
