# Blender 3.4.1
# www.blender.org
mtllib dolphin.mtl
o Cube.005
v 0.561289 0.389258 1.839769
v 0.561289 1.311000 1.924913
v -0.571765 0.389258 1.839769
v -0.571765 1.311000 1.924913
v 1.334410 0.208884 -8.730087
v 1.316644 2.013721 -9.743330
v -1.218932 0.161431 -8.667868
v -1.236464 1.959941 -9.758627
v 0.701584 0.601672 2.560630
v -0.712060 0.601672 2.560630
v -1.542381 0.984106 -9.241928
v 1.643072 1.061548 -9.278202
v -0.005344 0.273146 1.814831
v -0.005344 1.523541 1.970562
v 0.059511 -0.055082 -8.465782
v 0.036189 2.339608 -10.022846
v -0.307310 -1.014638 -11.357694
v -0.005344 0.601672 2.560630
v -1.434803 1.006184 -6.696727
v -1.455320 3.252693 -7.322220
v 1.489324 1.023055 -6.676314
v 1.468519 3.285665 -7.298349
v 1.844606 1.850096 -6.902015
v -1.803888 1.842547 -6.936121
v 0.001361 3.805211 -7.440995
v 0.029114 0.739809 -6.609287
v -1.159195 1.175476 -1.650169
v 1.148027 2.993428 -1.270298
v 1.433706 1.878009 -1.503650
v -0.005799 0.938730 -1.700572
v -1.159195 2.993083 -1.269928
v 1.148027 1.175489 -1.650068
v -1.444875 1.877822 -1.504082
v -0.005799 3.424955 -1.176587
v -0.577083 -0.180876 -10.164175
v -0.444299 -0.609039 -9.861345
v 0.075903 -0.691080 -9.795828
v 0.065260 0.411163 -10.570404
v 0.586369 0.255131 -10.452892
v 0.719033 -0.151377 -10.168669
v 0.594577 -0.594924 -9.855534
v -0.452507 0.241015 -10.458702
v -0.643313 0.312468 2.498515
v -0.226103 -1.276488 -11.172493
v 0.092036 -1.326662 -11.132425
v 0.085527 -0.652564 -11.606132
v 0.404221 -0.747989 -11.534263
v 0.485370 -1.003867 -11.353261
v 0.409241 -1.267856 -11.168939
v -0.231123 -0.756621 -11.537817
v 0.088971 -1.009253 -11.355477
v -1.558801 0.723157 -9.073212
v 1.664065 0.817834 -9.172614
v 0.632837 0.312468 2.498515
v -0.005344 0.255571 2.486295
v -1.821975 1.506573 -6.836993
v 1.869030 1.519121 -6.809536
v -1.461740 1.629188 -1.555801
v 1.450572 1.629303 -1.555371
v -0.511898 -0.402959 -10.007158
v 0.658173 -0.383175 -10.005190
v -0.267399 -1.155223 -11.258316
v 0.448184 -1.145501 -11.254311
v 0.090592 -1.177064 -11.237551
v -4.269478 2.087662 -6.475801
v -4.027146 1.827409 -7.427041
v -4.043348 1.574930 -7.356956
v -4.288501 1.846885 -6.409008
v 3.929977 1.937480 -7.376785
v 4.150052 2.203324 -6.421682
v 3.951104 1.685452 -7.306389
v 4.173835 1.956789 -6.352786
v -0.296421 1.414319 1.947104
v -0.597518 0.051109 -8.540653
v -0.368517 0.601672 2.560630
v -0.296421 0.332814 1.827647
v -0.176620 2.312292 -10.008009
v -0.723313 0.881298 -6.655255
v -0.241102 3.741142 -7.427632
v -0.598516 1.060347 -1.675009
v -0.198010 3.388861 -1.184106
v -0.191423 -0.648921 -9.829497
v -0.200815 0.323727 -10.513002
v -0.071452 -1.300878 -11.153015
v -0.077196 -0.706037 -11.571025
v -0.114673 -1.012020 -11.356617
v -0.093376 -1.165841 -11.248224
v -0.333189 0.284809 2.492574
v 0.277973 0.331202 1.827300
v 0.231084 2.327756 -10.008240
v 0.277973 1.417271 1.947738
v 0.696908 0.070042 -8.565351
v 0.348120 0.601672 2.560630
v 0.225832 3.751076 -7.425521
v 0.759030 0.887663 -6.644782
v 0.571114 1.057088 -1.675419
v 0.170486 3.395040 -1.183111
v 0.325814 0.333147 -10.511649
v 0.335240 -0.643002 -9.825682
v 0.244874 -0.700276 -11.570198
v 0.287171 -1.006559 -11.354368
v 0.250639 -1.297260 -11.150682
v 0.269388 -1.161284 -11.245934
v 0.313747 0.284019 2.492405
v -1.410928 3.585309 -4.189623
v 1.399556 1.495781 -4.374581
v -1.758090 2.211272 -4.312923
v -0.007274 4.122521 -4.157800
v -1.409846 1.387205 -4.389619
v 1.398492 3.588573 -4.188291
v 1.747019 2.218360 -4.309532
v -0.005274 1.011910 -4.430851
v 1.767736 1.895788 -4.338098
v -1.778485 1.889654 -4.341940
v -0.241049 4.068238 -4.163520
v -0.727080 1.159909 -4.419387
v 0.207680 4.076189 -4.161739
v 0.697177 1.159851 -4.415256
v -0.022293 5.613461 -3.708057
v -0.022162 5.701247 -3.939943
v -0.265591 5.640287 -3.956100
v -0.255191 5.550807 -3.690723
v 0.202182 5.642051 -3.934359
v 0.192561 5.569294 -3.713470
v 2.371547 -0.099870 4.728208
v 2.595744 0.062099 4.762997
v -0.276675 0.218804 4.185331
v -2.662527 0.062099 4.762996
v 0.256872 0.218804 4.185331
v -0.006287 0.218804 4.185331
v -2.438331 -0.099870 4.728208
v -0.005343 -0.012511 4.098668
v 0.231280 -0.017693 4.134536
v -0.250373 -0.017105 4.134663
vn -0.1339 0.6398 0.7567
vn -0.9633 0.1940 -0.1856
vn 0.2943 0.2484 -0.9229
vn 0.9195 0.2763 0.2797
vn 0.2327 -0.9041 0.3585
vn 0.3625 0.7945 0.4872
vn 0.9811 -0.1258 0.1471
vn -0.2035 0.2538 -0.9456
vn 0.2009 0.2589 0.9448
vn -0.0244 -0.9811 -0.1918
vn 0.6992 -0.3163 -0.6411
vn -0.7750 -0.1212 -0.6202
vn -0.2785 0.8192 0.5014
vn -0.1916 -0.9031 0.3842
vn -0.2268 -0.8814 0.4143
vn 0.1240 0.5682 0.8135
vn -0.1940 -0.9737 0.1198
vn -0.2010 0.8528 -0.4820
vn -0.9982 0.0593 0.0087
vn -0.1054 0.9518 -0.2879
vn 0.3507 0.8211 -0.4504
vn 0.3073 -0.9373 0.1644
vn 0.9607 0.2229 -0.1657
vn -0.9704 0.2411 -0.0142
vn -0.9195 0.2762 0.2798
vn 0.2053 -0.9616 -0.1821
vn -0.9811 -0.1258 0.1473
vn -0.2052 -0.9616 -0.1820
vn -0.2090 0.9525 0.2216
vn 0.9919 0.0488 0.1172
vn 0.3803 0.8999 0.2133
vn 0.9648 0.2273 0.1322
vn -0.1927 -0.8871 0.4195
vn 0.9583 -0.2856 0.0121
vn 0.9552 0.1176 -0.2716
vn 0.2120 -0.8816 0.4218
vn -0.8219 -0.3732 -0.4304
vn 0.7700 -0.0884 -0.6320
vn 0.2304 -0.8753 0.4251
vn 0.8248 -0.5325 -0.1902
vn 0.0124 -0.5748 -0.8182
vn -0.3580 0.6479 -0.6724
vn -0.9565 0.0884 -0.2780
vn 0.3476 0.6575 -0.6685
vn -0.9576 -0.2879 -0.0147
vn -0.9494 -0.3140 0.0026
vn 0.8239 -0.3298 -0.4608
vn -0.8052 -0.5624 -0.1881
vn 0.9663 -0.2574 -0.0053
vn 0.7852 -0.6191 0.0151
vn -0.7513 -0.6586 -0.0436
vn 0.8604 -0.4995 0.1013
vn -0.7988 -0.5923 0.1056
vn 0.1435 -0.9883 -0.0517
vn -0.1446 -0.9840 -0.1046
vn -0.8451 -0.5238 0.1065
vn 0.7514 -0.6584 -0.0436
vn -0.9686 0.0002 -0.2487
vn -0.6184 -0.2988 -0.7268
vn 0.0632 0.9468 -0.3154
vn -0.0991 -0.9492 0.2988
vn 0.9724 0.0228 -0.2320
vn -0.2331 0.2436 0.9414
vn 0.6671 -0.1982 -0.7181
vn 0.1388 -0.9550 0.2621
vn -0.1436 -0.9882 -0.0524
vn -0.3820 0.8993 0.2129
vn -0.2054 -0.9616 -0.1820
vn -0.3702 0.8076 -0.4590
vn -0.2436 -0.9597 0.1405
vn -0.1917 -0.8864 0.4213
vn -0.2069 -0.9039 0.3743
vn -0.3631 0.7942 0.4872
vn -0.0000 0.9733 0.2294
vn -0.2940 0.2404 -0.9251
vn -0.1242 0.5692 0.8128
vn 0.1445 -0.9840 -0.1039
vn 0.2720 -0.8640 0.4237
vn 0.1922 0.9558 0.2223
vn 0.2052 -0.9616 -0.1821
vn 0.2023 -0.9714 0.1244
vn 0.1699 0.8606 -0.4801
vn 0.1338 0.6388 0.7576
vn 0.0541 -0.9838 -0.1709
vn 0.2750 0.8200 0.5020
vn 0.2171 -0.8984 0.3817
vn 0.2033 0.2593 -0.9442
vn 0.2045 -0.9785 -0.0267
vn -0.9999 -0.0161 0.0040
vn -0.2668 -0.9631 -0.0362
vn -0.3783 0.9210 -0.0924
vn -0.8156 -0.5776 0.0344
vn 0.7674 -0.6252 0.1420
vn 0.9683 0.2500 -0.0010
vn 0.3664 0.9265 -0.0862
vn 0.9970 0.0717 0.0286
vn -0.2177 0.8566 -0.4678
vn -0.9651 0.2264 0.1318
vn 0.3365 -0.9404 -0.0496
vn -0.9920 0.0483 0.1168
vn -0.2016 -0.9791 -0.0262
vn 0.2161 0.9188 0.3304
vn -0.2363 0.9137 0.3306
vn 1.0000 0.0024 0.0078
vn 0.0973 -0.2940 0.9508
vn 0.2375 0.8548 -0.4614
vn -0.0399 -0.2883 0.9567
vn 0.2502 -0.0501 0.9669
vn -0.0716 -0.2777 0.9580
vn 0.0694 -0.2776 0.9582
vn -0.2551 -0.0475 0.9657
vn -0.0069 0.9729 0.2311
vn -0.0549 -0.9838 -0.1709
vn 0.0070 0.9729 0.2312
vn 0.0253 -0.9811 -0.1918
vn -0.6924 -0.3096 -0.6517
vt 0.892431 0.176847
vt 0.157461 0.070714
vt 0.892385 0.297527
vt 0.070474 0.157128
vt 0.624524 0.125869
vt 0.376136 0.247050
vt 0.624901 0.348108
vt 0.245367 0.377028
vt 0.920394 0.136918
vt 0.604911 0.832557
vt 0.131413 0.000000
vt 0.920394 0.325830
vt 0.000000 0.130653
vt 0.920394 0.337474
vt 0.920394 0.188915
vt 0.604911 0.648071
vt 0.201405 0.508241
vt 0.571913 0.426051
vt 0.604912 0.533544
vt 0.436529 0.509255
vt 0.488893 0.765667
vt 0.507690 0.203982
vt 0.571541 0.048100
vt 0.000000 0.737431
vt 0.890224 0.237216
vt 0.124106 0.124150
vt 0.626578 0.236967
vt 0.305558 0.306639
vt 0.412398 0.489636
vt 0.514597 0.281823
vt 0.059216 0.058855
vt 0.920394 0.257363
vt 0.674165 0.367222
vt 0.208665 0.348686
vt 0.673163 0.106604
vt 0.348063 0.210190
vt 0.436529 0.731706
vt 0.144317 0.735062
vt 0.476171 0.116175
vt 0.674569 0.000000
vt 0.749372 0.535585
vt 0.674764 0.474208
vt 0.113797 0.476147
vt 0.383815 0.542669
vt 0.275906 0.276792
vt 0.265842 0.673660
vt 0.383815 0.514470
vt 0.678797 0.236921
vt 0.803589 0.354661
vt 0.269631 0.141749
vt 0.824509 0.039981
vt 0.306977 0.023331
vt 0.804705 0.237176
vt 0.140697 0.269766
vt 0.804022 0.120022
vt 0.022062 0.306345
vt 0.824536 0.434737
vt 0.211065 0.211594
vt 0.356338 0.509255
vt 0.535670 0.321977
vt 0.579060 0.287094
vt 0.584834 0.236997
vt 0.386721 0.388494
vt 0.436359 0.354916
vt 0.507690 0.358986
vt 0.535450 0.152143
vt 0.578893 0.186870
vt 0.352794 0.437914
vt 0.909156 0.306898
vt 0.578430 0.667723
vt 0.543495 0.265846
vt 0.547168 0.237051
vt 0.418757 0.420844
vt 0.450112 0.402958
vt 0.487656 0.414955
vt 0.514481 0.192363
vt 0.543426 0.208263
vt 0.400655 0.452045
vt 0.507690 0.237100
vt 0.454469 0.456796
vt 0.596991 0.413372
vt 0.630304 0.527872
vt 0.596613 0.060738
vt 0.025025 0.748127
vt 0.909253 0.167433
vt 0.578656 0.812659
vt 0.911059 0.237233
vt 0.579211 0.740178
vt 0.667961 0.434584
vt 0.699596 0.536506
vt 0.094559 0.733853
vt 0.667643 0.039843
vt 0.812626 0.410518
vt 0.812592 0.064199
vt 0.558192 0.304077
vt 0.557994 0.169980
vt 0.530984 0.272882
vt 0.530888 0.201257
vt 0.529924 0.237072
vt 0.749372 0.672527
vt 0.419128 0.779184
vt 0.696517 0.665589
vt 0.436529 0.752910
vt 0.712471 0.650098
vt 0.731086 0.652308
vt 0.488893 0.535696
vt 0.091644 0.520905
vt 0.471744 0.509255
vt 0.144317 0.509255
vt 0.107154 0.548141
vt 0.125830 0.544602
vt 0.096130 0.138600
vt 0.624079 0.295470
vt 0.027669 0.093926
vt 0.920394 0.222188
vt 0.892195 0.267903
vt 0.295516 0.318010
vt 0.677512 0.303826
vt 0.264785 0.288558
vt 0.235818 0.679160
vt 0.806108 0.297400
vt 0.199799 0.220859
vt 0.581626 0.262005
vt 0.371771 0.414474
vt 0.544922 0.251944
vt 0.410086 0.436904
vt 0.434333 0.474476
vt 0.509644 0.260463
vt 0.529320 0.255526
vt 0.910996 0.273239
vt 0.578768 0.703076
vt 0.892204 0.207357
vt 0.315909 0.297422
vt 0.138269 0.097018
vt 0.623934 0.179995
vt 0.093414 0.028349
vt 0.920394 0.291597
vt 0.286756 0.266625
vt 0.356418 0.509255
vt 0.677647 0.171614
vt 0.806282 0.178634
vt 0.219691 0.201407
vt 0.412100 0.374254
vt 0.581666 0.212668
vt 0.434461 0.412516
vt 0.509494 0.214347
vt 0.471836 0.437408
vt 0.544936 0.222559
vt 0.529258 0.219105
vt 0.911089 0.202153
vt 0.578897 0.776291
vt 0.173919 0.316139
vt 0.736425 0.100117
vt 0.051878 0.404781
vt 0.748439 0.460512
vt 0.246308 0.247035
vt 0.144317 0.616333
vt 0.265842 0.568971
vt 0.734681 0.368571
vt 0.315785 0.175239
vt 0.405230 0.053792
vt 0.748438 0.013945
vt 0.737323 0.237018
vt 0.738592 0.046901
vt 0.738703 0.427559
vt 0.234513 0.257569
vt 0.158567 0.636521
vt 0.737300 0.303091
vt 0.256054 0.236316
vt 0.279089 0.550905
vt 0.737457 0.172680
vt 0.247253 0.509255
vt 0.365232 0.676864
vt 0.265842 0.513090
vt 0.383815 0.672960
vt 0.248520 0.540866
vt 0.241923 0.540517
vt 0.367669 0.647659
vt 0.361103 0.647925
vt 0.525157 0.950001
vt 0.512860 1.000000
vt 0.971574 0.509292
vt 0.507690 0.710026
vt 0.957949 0.231084
vt 0.971574 0.000000
vt 0.512159 0.474208
vt 0.507746 0.769504
vt 0.957949 0.282759
vt 0.507966 0.740167
vt 0.957949 0.257271
vt 0.524572 0.525706
vt 0.535390 0.740256
vt 0.534703 0.767008
vt 0.534585 0.712546
s 0
usemtl Material.006
f 75/114/1 73/112/1 4/4/1 10/13/1
f 24/43/2 20/34/2 8/8/2 11/17/2
f 90/133/3 6/6/3 39/64/3 98/143/3
f 29/52/4 28/50/4 2/2/4 9/11/4
f 95/140/5 92/135/5 5/5/5 21/35/5
f 97/142/6 91/134/6 2/2/6 28/50/6
f 59/94/7 29/51/7 9/9/7 54/85/7
f 77/117/8 16/28/8 38/63/8 83/124/8
f 56/90/9 24/41/9 65/100/9 68/105/9
f 43/70/10 88/131/10 134/194/10 131/191/10
f 54/86/11 9/10/11 126/181/11 125/180/11
f 11/17/12 8/8/12 42/68/12 35/59/12
f 81/122/13 73/112/13 14/26/13 34/58/13
f 78/118/14 74/113/14 15/27/14 26/48/14
f 74/113/15 7/7/15 36/61/15 82/123/15
f 93/136/16 91/134/16 14/26/16 18/31/16
f 116/168/17 78/118/17 26/48/17 112/163/17
f 77/117/18 79/119/18 25/45/18 16/28/18
f 114/165/19 107/155/19 24/42/19 56/89/19
f 12/21/20 23/37/20 70/108/20 69/106/20
f 90/133/21 94/138/21 22/36/21 6/6/21
f 118/171/22 95/140/22 21/35/22 106/153/22
f 12/22/23 6/6/23 22/36/23 23/39/23
f 107/154/24 105/152/24 20/34/24 24/43/24
f 10/13/25 4/4/25 31/54/25 33/56/25
f 89/132/26 96/141/26 32/55/26 1/1/26
f 43/69/27 10/14/27 33/57/27 58/93/27
f 76/116/28 80/121/28 30/53/28 13/25/28
f 115/166/29 81/122/29 34/58/29 108/156/29
f 113/164/30 111/162/30 29/51/30 59/94/30
f 117/169/31 97/142/31 28/50/31 110/160/31
f 111/161/32 110/160/32 28/50/32 29/52/32
f 82/123/33 36/61/33 44/71/33 84/125/33
f 61/96/34 41/67/34 49/77/34 63/98/34
f 39/64/35 40/65/35 48/75/35 47/74/35
f 99/144/36 37/62/36 45/72/36 102/148/36
f 52/81/37 11/18/37 35/60/37 60/95/37
f 6/6/38 12/22/38 40/65/38 39/64/38
f 92/135/39 15/27/39 37/62/39 99/144/39
f 53/83/40 5/5/40 41/67/40 61/96/40
f 101/147/41 100/145/41 47/74/41 48/75/41
f 103/149/41 101/146/41 48/76/41 63/98/41
f 87/129/41 86/128/41 51/79/41 64/99/41
f 86/127/41 85/126/41 46/73/41 51/80/41
f 83/124/42 38/63/42 46/73/42 85/126/42
f 35/59/43 42/68/43 50/78/43 17/29/43
f 98/143/44 39/64/44 47/74/44 100/145/44
f 60/95/45 35/60/45 17/30/45 62/97/45
f 36/61/46 60/95/46 62/97/46 44/71/46
f 84/125/41 87/129/41 64/99/41 45/72/41
f 102/148/41 103/149/41 63/98/41 49/77/41
f 12/23/47 53/83/47 61/96/47 40/66/47
f 7/7/48 52/81/48 60/95/48 36/61/48
f 40/66/49 61/96/49 63/98/49 48/76/49
f 106/153/50 113/164/50 59/94/50 32/55/50
f 3/3/51 43/69/51 58/93/51 27/49/51
f 5/5/52 53/83/52 57/92/52 21/35/52
f 109/159/53 114/165/53 56/89/53 19/33/53
f 89/132/54 104/150/54 55/87/54 13/25/54
f 76/116/55 88/130/55 43/69/55 3/3/55
f 19/33/56 56/89/56 52/81/56 7/7/56
f 32/55/57 59/94/57 54/85/57 1/1/57
f 68/105/58 65/100/58 66/102/58 67/104/58
f 11/19/59 52/82/59 67/104/59 66/102/59
f 24/44/60 11/20/60 66/103/60 65/101/60
f 52/82/61 56/90/61 68/105/61 67/104/61
f 71/110/62 69/107/62 70/109/62 72/111/62
f 23/38/63 57/91/63 72/111/63 70/109/63
f 53/84/64 12/24/64 69/107/64 71/110/64
f 57/91/65 53/84/65 71/110/65 72/111/65
f 13/25/66 55/87/66 88/130/66 76/116/66
f 44/71/41 62/97/41 87/129/41 84/125/41
f 42/68/42 83/124/42 85/126/42 50/78/42
f 17/29/41 50/78/41 85/126/41 86/127/41
f 62/97/41 17/30/41 86/128/41 87/129/41
f 37/62/33 82/123/33 84/125/33 45/72/33
f 105/152/67 31/54/67 81/122/67 115/166/67
f 3/3/68 27/49/68 80/121/68 76/116/68
f 8/8/69 20/34/69 79/119/69 77/117/69
f 109/159/70 19/33/70 78/118/70 116/168/70
f 15/27/71 74/113/71 82/123/71 37/62/71
f 19/33/72 7/7/72 74/113/72 78/118/72
f 31/54/73 4/4/73 73/112/73 81/122/73
f 93/137/74 18/32/74 130/190/74 129/188/74
f 8/8/75 77/117/75 83/124/75 42/68/75
f 18/31/76 14/26/76 73/112/76 75/114/76
f 1/1/77 54/85/77 104/150/77 89/132/77
f 45/72/41 64/99/41 103/149/41 102/148/41
f 38/63/44 98/143/44 100/145/44 46/73/44
f 64/99/41 51/79/41 101/146/41 103/149/41
f 51/80/41 46/73/41 100/145/41 101/147/41
f 5/5/78 92/135/78 99/144/78 41/67/78
f 41/67/36 99/144/36 102/148/36 49/77/36
f 108/156/79 34/58/79 97/142/79 117/169/79
f 13/25/80 30/53/80 96/141/80 89/132/80
f 112/163/81 26/48/81 95/140/81 118/171/81
f 16/28/82 25/45/82 94/138/82 90/133/82
f 9/11/83 2/2/83 91/134/83 93/136/83
f 55/88/84 104/151/84 133/193/84 132/192/84
f 34/58/85 14/26/85 91/134/85 97/142/85
f 26/48/86 15/27/86 92/135/86 95/140/86
f 16/28/87 90/133/87 98/143/87 38/63/87
f 30/53/88 112/163/88 118/171/88 96/141/88
f 79/120/89 115/167/89 122/177/89 121/176/89
f 27/49/90 109/159/90 116/168/90 80/121/90
f 20/34/91 105/152/91 115/166/91 79/119/91
f 27/49/92 58/93/92 114/165/92 109/159/92
f 21/35/93 57/92/93 113/164/93 106/153/93
f 23/39/94 22/36/94 110/160/94 111/161/94
f 94/138/95 117/169/95 110/160/95 22/36/95
f 57/92/96 23/40/96 111/162/96 113/164/96
f 25/46/97 79/120/97 121/176/97 120/174/97
f 33/56/98 31/54/98 105/152/98 107/154/98
f 96/141/99 118/171/99 106/153/99 32/55/99
f 58/93/100 33/57/100 107/155/100 114/165/100
f 80/121/101 116/168/101 112/163/101 30/53/101
f 120/175/102 119/173/102 124/179/102 123/178/102
f 121/176/103 122/177/103 119/172/103 120/174/103
f 117/170/104 94/139/104 123/178/104 124/179/104
f 115/167/105 108/157/105 119/172/105 122/177/105
f 94/139/106 25/47/106 120/175/106 123/178/106
f 108/158/107 117/170/107 124/179/107 119/173/107
f 134/194/108 127/183/108 128/186/108 131/191/108
f 133/193/109 129/187/109 130/189/109 132/192/109
f 132/192/110 130/189/110 127/183/110 134/194/110
f 125/180/111 126/181/111 129/187/111 133/193/111
f 75/115/112 10/15/112 128/185/112 127/184/112
f 88/131/113 55/88/113 132/192/113 134/194/113
f 9/12/114 93/137/114 129/188/114 126/182/114
f 18/32/74 75/115/74 127/184/74 130/190/74
f 104/151/115 54/86/115 125/180/115 133/193/115
f 10/16/116 43/70/116 131/191/116 128/186/116
