# Blender 3.4.1
# www.blender.org
mtllib neon_tube.mtl
o Cylinder.003
v -2.067434 0.000000 -0.130254
v 1.906357 -0.000000 -0.130254
v -2.045294 -0.070421 -0.109577
v 1.928497 -0.095556 -0.109577
v -1.985865 -0.118483 -0.054110
v 1.987926 -0.160774 -0.054110
v -1.908042 -0.128928 0.018537
v 2.065749 -0.174947 0.018537
v -1.836530 -0.098439 0.085298
v 2.137261 -0.133576 0.085298
v -1.793378 -0.036697 0.124978
v 2.179767 -0.049795 0.124978
v -1.794024 0.036697 0.124978
v 2.179767 0.073393 0.124978
v -1.836530 0.098440 0.085298
v 2.137261 0.133576 0.085298
v -1.908042 0.128928 0.018537
v 2.065749 0.174947 0.018537
v -1.985865 0.118483 -0.054110
v 1.987926 0.160774 -0.054110
v -2.045294 0.070421 -0.109577
v 1.928497 0.095556 -0.109577
v 1.906357 -0.000000 -3.879086
v 1.928497 -0.070421 -3.858402
v 1.987926 -0.118484 -3.802939
v 2.065749 -0.128929 -3.730296
v 2.137261 -0.098440 -3.663528
v 2.179035 -0.036697 -3.623868
v 2.179767 0.036697 -3.623853
v 2.137261 0.098439 -3.663528
v 2.065749 0.128928 -3.730296
v 1.987926 0.118483 -3.802939
v 1.928497 0.070420 -3.858402
v 5.877394 -0.000000 -3.879086
v 5.899527 -0.095556 -3.858402
v 5.958964 -0.160774 -3.802939
v 6.036787 -0.174947 -3.730296
v 6.108299 -0.133576 -3.663528
v 6.150805 -0.049795 -3.623852
v 6.150805 0.073393 -3.623853
v 6.108299 0.133576 -3.663528
v 6.036787 0.174947 -3.730296
v 5.958964 0.160774 -3.802939
v 5.899535 0.095556 -3.858402
v -10.010228 0.001998 7.370822
v -6.038470 0.000000 7.370822
v -9.988089 -0.068423 7.391506
v -6.016330 -0.095556 7.391506
v -9.928659 -0.116486 7.446969
v -5.956901 -0.160774 7.446969
v -9.850837 -0.126931 7.519611
v -5.879078 -0.174947 7.519611
v -9.779325 -0.096442 7.586380
v -5.807566 -0.133576 7.586380
v -9.737186 -0.034699 7.626586
v -5.765060 -0.049795 7.626055
v -9.736819 0.038695 7.626055
v -5.765060 0.073394 7.626055
v -9.779325 0.100437 7.586380
v -5.807566 0.133576 7.586380
v -9.850837 0.130926 7.519611
v -5.879078 0.174948 7.519611
v -9.928659 0.120481 7.446969
v -5.956901 0.160774 7.446969
v -9.988089 0.072418 7.391506
v -6.016330 0.095557 7.391506
v -6.038470 0.000000 3.621992
v -6.016330 -0.070421 3.642676
v -5.956901 -0.118483 3.698138
v -5.879078 -0.128928 3.770781
v -5.807566 -0.098439 3.837549
v -5.765791 -0.036697 3.877210
v -5.765060 0.036697 3.877225
v -5.807566 0.098440 3.837549
v -5.879078 0.128928 3.770781
v -5.956901 0.118483 3.698138
v -6.016330 0.070421 3.642676
v -2.067434 0.000000 3.621990
v -2.045294 -0.095556 3.642675
v -1.985865 -0.160774 3.698138
v -1.908042 -0.174947 3.770781
v -1.836530 -0.133576 3.837549
v -1.794023 -0.049795 3.877226
v -1.794024 0.073394 3.877225
v -1.836530 0.133576 3.837549
v -1.908042 0.174948 3.770781
v -1.985865 0.160774 3.698138
v -2.045294 0.095557 3.642676
v -10.010228 0.003995 11.120747
v -9.988089 -0.091561 11.141430
v -9.928659 -0.156779 11.196893
v -9.850837 -0.170952 11.269536
v -9.779325 -0.129581 11.336304
v -9.736813 -0.045800 11.375980
v -9.736819 0.077389 11.375979
v -9.779325 0.137571 11.336306
v -9.850837 0.178943 11.269537
v -9.928659 0.164769 11.196894
v -9.988089 0.099551 11.141430
v -1.793378 -0.036697 0.124978
v 2.179767 -0.049795 0.124978
v 2.179035 -0.036697 -3.623868
v 6.150805 -0.049795 -3.623852
v -9.737186 -0.034699 7.626586
v -5.765060 -0.049795 7.626055
v -5.765791 -0.036697 3.877210
v -1.794023 -0.049795 3.877226
v -9.736813 -0.045800 11.375980
vn -0.0008 -0.2420 -0.9703
vn -0.0060 -0.7028 -0.7113
vn -0.0110 -0.9878 -0.1556
vn -0.0090 -0.8765 0.4813
vn -0.0029 -0.4775 0.8787
vn -0.0000 -0.0000 1.0000
vn -0.0049 0.5431 0.8397
vn -0.0090 0.8765 0.4813
vn -0.0110 0.9878 -0.1556
vn -0.0060 0.7028 -0.7113
vn -0.0008 0.2420 -0.9703
vn -0.9662 -0.2580 -0.0009
vn -0.6867 -0.7269 -0.0065
vn -0.1456 -0.9893 -0.0117
vn 0.4561 -0.8899 -0.0096
vn 0.8661 -0.4998 -0.0033
vn 1.0000 -0.0037 -0.0001
vn 0.8219 0.5695 -0.0055
vn 0.4561 0.8899 -0.0096
vn -0.1456 0.9893 -0.0117
vn -0.6867 0.7269 -0.0065
vn -0.9662 0.2580 -0.0009
vn -0.0029 -0.4774 0.8787
vn -0.0000 -0.0001 1.0000
vn 0.6824 -0.0000 -0.7310
vn -0.0009 -0.2421 -0.9703
vn -0.0063 -0.7030 -0.7112
vn -0.0115 -0.9878 -0.1551
vn -0.0094 -0.8763 0.4816
vn -0.0031 -0.4798 0.8774
vn 0.0001 0.0027 1.0000
vn -0.0046 0.5432 0.8396
vn -0.0085 0.8767 0.4809
vn -0.0105 0.9877 -0.1561
vn -0.0056 0.7026 -0.7115
vn -0.0006 0.2420 -0.9703
vn -0.1456 -0.9893 -0.0116
vn 0.8625 -0.5060 -0.0032
vn 1.0000 0.0033 0.0001
vn -0.1456 0.9893 -0.0116
vn -0.9662 -0.2579 -0.0007
vn -0.6869 -0.7267 -0.0061
vn -0.1461 -0.9892 -0.0111
vn 0.4557 -0.8901 -0.0092
vn 0.8651 -0.5016 -0.0030
vn 1.0000 -0.0018 -0.0000
vn 0.8220 0.5694 -0.0058
vn 0.4564 0.8897 -0.0101
vn -0.1451 0.9893 -0.0122
vn -0.6865 0.7271 -0.0069
vn -0.9661 0.2580 -0.0010
vn 1.0000 -0.0000 -0.0000
vt 0.063488 0.247914
vt 0.566164 0.247914
vt 0.063735 0.749892
vt 0.816474 0.721474
vt 0.054218 0.250715
vt 0.575488 0.250530
vt 0.051386 0.752696
vt 0.828863 0.724093
vt 0.044936 0.258208
vt 0.585155 0.257520
vt 0.040566 0.760196
vt 0.840015 0.731091
vt 0.035593 0.267972
vt 0.595145 0.266621
vt 0.031151 0.769964
vt 0.850072 0.740197
vt 0.026199 0.276878
vt 0.605083 0.274915
vt 0.021096 0.778849
vt 0.860636 0.748469
vt 0.016833 0.282164
vt 0.119446 0.281932
vt 0.614688 0.279752
vt 0.508386 0.279511
vt -0.216550 0.625015
vt 0.009291 0.784007
vt 0.131164 0.783695
vt 0.872596 0.753259
vt 0.747325 0.752931
vt -0.216536 0.750012
vt 0.110175 0.282036
vt 0.517656 0.279705
vt 0.115606 0.784007
vt 0.762883 0.753259
vt 0.100806 0.276841
vt 0.527219 0.274876
vt 0.106402 0.778807
vt 0.772285 0.748426
vt 0.091403 0.267944
vt 0.537166 0.266592
vt 0.096339 0.769932
vt 0.782857 0.740164
vt 0.082051 0.258190
vt 0.547164 0.257501
vt 0.086913 0.760173
vt 0.792924 0.731068
vt 0.072761 0.250706
vt 0.556838 0.250521
vt 0.076086 0.752683
vt 0.804082 0.724081
vt 0.816709 0.247914
vt 0.429109 0.247914
vt 0.826033 0.250531
vt 0.419838 0.250715
vt 0.835701 0.257520
vt 0.410556 0.258208
vt 0.845689 0.266620
vt 0.401214 0.267972
vt 0.855628 0.274915
vt 0.391819 0.276877
vt 0.865135 0.279751
vt 0.758931 0.279508
vt 0.382458 0.281990
vt 0.485063 0.281758
vt -0.216523 0.875009
vt 0.768200 0.279705
vt 0.475796 0.282036
vt 0.777764 0.274877
vt 0.466426 0.276840
vt 0.787711 0.266592
vt 0.457022 0.267944
vt 0.797708 0.257501
vt 0.447671 0.258190
vt 0.807383 0.250522
vt 0.438381 0.250706
vt 0.563083 0.753691
vt 0.429354 0.749544
vt 0.417005 0.752347
vt 0.551012 0.757518
vt 0.406186 0.759848
vt 0.542773 0.767786
vt 0.396771 0.769616
vt 0.540983 0.781235
vt 0.386715 0.778501
vt 0.546209 0.793593
vt 0.374911 0.783659
vt 0.496783 0.783346
vt 0.556792 0.800939
vt -0.216516 1.000000
vt 0.481226 0.783659
vt 0.572354 0.800939
vt 0.472022 0.778459
vt 0.579956 0.793593
vt 0.461958 0.769584
vt 0.585182 0.781235
vt 0.583392 0.767786
vt 0.452533 0.759825
vt 0.575154 0.757518
vt 0.441706 0.752335
vt 0.185401 0.247914
vt 0.691474 0.247914
vt 0.185610 0.749635
vt 0.941745 0.721474
vt 0.176131 0.250720
vt 0.700797 0.250527
vt 0.173263 0.752444
vt 0.954134 0.724095
vt 0.166850 0.258215
vt 0.710467 0.257514
vt 0.162445 0.759947
vt 0.965286 0.731091
vt 0.157509 0.267979
vt 0.720456 0.266613
vt 0.153030 0.769716
vt 0.975343 0.740197
vt 0.148112 0.276880
vt 0.730392 0.274911
vt 0.142972 0.778598
vt 0.985907 0.748470
vt 0.138710 0.282034
vt 0.241354 0.281811
vt 0.739924 0.279821
vt 0.633691 0.279571
vt -0.216549 0.125048
vt 0.131164 0.783750
vt 0.253038 0.783446
vt 0.997866 0.753258
vt 0.872596 0.752931
vt -0.216565 0.250031
vt 0.232085 0.282037
vt 0.642963 0.279704
vt 0.237479 0.783750
vt 0.888154 0.753258
vt 0.222718 0.276837
vt 0.652530 0.274880
vt 0.228278 0.778544
vt 0.897556 0.748426
vt 0.213317 0.267938
vt 0.662479 0.266599
vt 0.218218 0.769668
vt 0.908129 0.740163
vt 0.203966 0.258183
vt 0.672476 0.257508
vt 0.208793 0.759909
vt 0.918195 0.731069
vt 0.194674 0.250703
vt 0.682149 0.250526
vt 0.197963 0.752422
vt 0.929353 0.724083
vt 0.941980 0.247914
vt 0.307234 0.247914
vt 0.951304 0.250531
vt 0.297963 0.250716
vt 0.960971 0.257520
vt 0.288682 0.258208
vt 0.970961 0.266621
vt 0.279340 0.267972
vt 0.980899 0.274915
vt 0.269945 0.276877
vt 0.990406 0.279752
vt 0.884202 0.279508
vt 0.260583 0.281990
vt 0.363189 0.281757
vt -0.216568 0.375023
vt 0.893471 0.279705
vt 0.353921 0.282037
vt 0.903036 0.274877
vt 0.344552 0.276841
vt 0.912982 0.266592
vt 0.335147 0.267944
vt 0.922980 0.257501
vt 0.325796 0.258189
vt 0.932655 0.250522
vt 0.316507 0.250706
vt 0.307481 0.749544
vt 0.565932 0.721906
vt 0.295132 0.752347
vt 0.578321 0.724526
vt 0.284312 0.759848
vt 0.589473 0.731523
vt 0.274897 0.769615
vt 0.599530 0.740628
vt 0.264841 0.778502
vt 0.610095 0.748902
vt 0.253037 0.783659
vt 0.374910 0.783347
vt 0.622054 0.753691
vt 0.496783 0.753364
vt -0.216562 0.500018
vt 0.359352 0.783659
vt 0.512341 0.753691
vt 0.350148 0.778458
vt 0.521744 0.748858
vt 0.340084 0.769584
vt 0.532315 0.740595
vt 0.330659 0.759825
vt 0.542382 0.731500
vt 0.319833 0.752335
vt 0.553540 0.724514
vt 0.518884 0.753691
vt 0.691206 0.721613
vt 0.506813 0.757518
vt 0.703595 0.724226
vt 0.498574 0.767786
vt 0.714748 0.731220
vt 0.496783 0.781235
vt 0.724807 0.740326
vt 0.502009 0.793592
vt 0.735366 0.748602
vt 0.512592 0.800939
vt 0.747326 0.753398
vt 0.622054 0.753062
vt -0.216516 0.000072
vt 0.528154 0.800939
vt 0.637612 0.753398
vt 0.535756 0.793594
vt 0.647015 0.748571
vt 0.540983 0.781235
vt 0.657591 0.740311
vt 0.539193 0.767786
vt 0.667658 0.731215
vt 0.530955 0.757518
vt 0.678814 0.724225
vt -0.216425 0.624943
vt -0.216411 0.749941
vt -0.216398 0.874936
vt -0.216391 0.999928
vt -0.216424 0.124975
vt -0.216440 0.249960
vt -0.216443 0.374950
vt -0.216437 0.499946
vt -0.216391 0.000000
s 0
usemtl Material.004
f 1/1/1 2/3/1 4/7/1 3/5/1
f 3/5/2 4/7/2 6/11/2 5/9/2
f 5/9/3 6/11/3 8/15/3 7/13/3
f 7/13/4 8/15/4 10/19/4 9/17/4
f 9/17/5 10/19/5 12/26/5 11/21/5
f 11/22/6 12/27/6 14/33/6 13/31/6
f 13/31/7 14/33/7 16/37/7 15/35/7
f 15/35/8 16/37/8 18/41/8 17/39/8
f 17/39/9 18/41/9 20/45/9 19/43/9
f 19/43/10 20/45/10 22/49/10 21/47/10
f 21/47/11 22/49/11 2/3/11 1/1/11
f 2/4/12 23/51/12 24/53/12 4/8/12
f 4/8/13 24/53/13 25/55/13 6/12/13
f 6/12/14 25/55/14 26/57/14 8/16/14
f 8/16/15 26/57/15 27/59/15 10/20/15
f 10/20/16 27/59/16 28/61/16 12/28/16
f 12/29/17 28/62/17 29/66/17 14/34/17
f 14/34/18 29/66/18 30/68/18 16/38/18
f 16/38/19 30/68/19 31/70/19 18/42/19
f 18/42/20 31/70/20 32/72/20 20/46/20
f 20/46/21 32/72/21 33/74/21 22/50/21
f 22/50/22 33/74/22 23/51/22 2/4/22
f 23/52/1 34/77/1 35/78/1 24/54/1
f 24/54/2 35/78/2 36/80/2 25/56/2
f 25/56/3 36/80/3 37/82/3 26/58/3
f 26/58/4 37/82/4 38/84/4 27/60/4
f 27/60/23 38/84/23 39/86/23 28/63/23
f 28/64/24 39/87/24 40/90/24 29/67/24
f 29/67/7 40/90/7 41/92/7 30/69/7
f 30/69/8 41/92/8 42/94/8 31/71/8
f 31/71/9 42/94/9 43/97/9 32/73/9
f 35/79/25 34/76/25 44/98/25 43/96/25 42/95/25 41/93/25 40/91/25 39/88/25 38/85/25 37/83/25 36/81/25
f 32/73/10 43/97/10 44/99/10 33/75/10
f 33/75/11 44/99/11 34/77/11 23/52/11
f 45/100/26 46/102/26 48/106/26 47/104/26
f 47/104/27 48/106/27 50/110/27 49/108/27
f 49/108/28 50/110/28 52/114/28 51/112/28
f 51/112/29 52/114/29 54/118/29 53/116/29
f 53/116/30 54/118/30 56/125/30 55/120/30
f 55/121/31 56/126/31 58/132/31 57/130/31
f 57/130/32 58/132/32 60/136/32 59/134/32
f 59/134/33 60/136/33 62/140/33 61/138/33
f 61/138/34 62/140/34 64/144/34 63/142/34
f 63/142/35 64/144/35 66/148/35 65/146/35
f 65/146/36 66/148/36 46/102/36 45/100/36
f 46/103/12 67/150/12 68/152/12 48/107/12
f 48/107/13 68/152/13 69/154/13 50/111/13
f 50/111/14 69/154/14 70/156/14 52/115/14
f 52/115/15 70/156/15 71/158/15 54/119/15
f 54/119/16 71/158/16 72/160/16 56/127/16
f 56/128/17 72/161/17 73/165/17 58/133/17
f 58/133/18 73/165/18 74/167/18 60/137/18
f 60/137/19 74/167/19 75/169/19 62/141/19
f 62/141/20 75/169/20 76/171/20 64/145/20
f 64/145/21 76/171/21 77/173/21 66/149/21
f 66/149/22 77/173/22 67/150/22 46/103/22
f 67/151/1 78/175/1 79/177/1 68/153/1
f 68/153/2 79/177/2 80/179/2 69/155/2
f 69/155/3 80/179/3 81/181/3 70/157/3
f 70/157/4 81/181/4 82/183/4 71/159/4
f 71/159/23 82/183/23 83/185/23 72/162/23
f 72/163/24 83/186/24 84/190/24 73/166/24
f 73/166/7 84/190/7 85/192/7 74/168/7
f 74/168/8 85/192/8 86/194/8 75/170/8
f 75/170/9 86/194/9 87/196/9 76/172/9
f 76/172/10 87/196/10 88/198/10 77/174/10
f 77/174/11 88/198/11 78/175/11 67/151/11
f 78/176/12 1/2/12 3/6/12 79/178/12
f 79/178/13 3/6/13 5/10/13 80/180/13
f 80/180/37 5/10/37 7/14/37 81/182/37
f 81/182/15 7/14/15 9/18/15 82/184/15
f 82/184/38 9/18/38 11/23/38 83/187/38
f 83/188/39 11/24/39 13/32/39 84/191/39
f 84/191/18 13/32/18 15/36/18 85/193/18
f 85/193/19 15/36/19 17/40/19 86/195/19
f 86/195/40 17/40/40 19/44/40 87/197/40
f 87/197/21 19/44/21 21/48/21 88/199/21
f 88/199/22 21/48/22 1/2/22 78/176/22
f 90/202/25 89/200/25 99/222/25 98/220/25 97/218/25 96/216/25 95/214/25 94/210/25 93/208/25 92/206/25 91/204/25
f 89/201/41 45/101/41 47/105/41 90/203/41
f 90/203/42 47/105/42 49/109/42 91/205/42
f 91/205/43 49/109/43 51/113/43 92/207/43
f 92/207/44 51/113/44 53/117/44 93/209/44
f 93/209/45 53/117/45 55/122/45 94/211/45
f 94/212/46 55/123/46 57/131/46 95/215/46
f 95/215/47 57/131/47 59/135/47 96/217/47
f 96/217/48 59/135/48 61/139/48 97/219/48
f 97/219/49 61/139/49 63/143/49 98/221/49
f 98/221/50 63/143/50 65/147/50 99/223/50
f 99/223/51 65/147/51 45/101/51 89/201/51
f 83/189/52 72/164/52 106/230/52 107/231/52
f 39/89/52 28/65/52 102/226/52 103/227/52
f 12/30/52 11/25/52 100/224/52 101/225/52
f 56/129/52 55/124/52 104/228/52 105/229/52
f 72/164/52 56/129/52 105/229/52 106/230/52
f 28/65/52 12/30/52 101/225/52 102/226/52
f 55/124/52 94/213/52 108/232/52 104/228/52
f 11/25/52 83/189/52 107/231/52 100/224/52
