# Blender 3.4.1
# www.blender.org
mtllib store_shelving_1.mtl
o Cube.020
v -3.391934 0.117564 -0.089097
v -3.391934 6.655528 -0.089097
v -3.391934 0.117564 -12.347964
v -3.391934 6.655528 -12.347964
v 0.238331 0.117564 -0.089097
v -1.391934 6.655528 -0.089097
v 0.238331 0.117564 -12.347964
v -1.391934 6.655528 -12.347964
v -3.391934 2.296885 -0.089097
v -3.391934 4.476207 -0.089097
v -3.391934 4.476207 -12.347964
v -3.391934 2.296885 -12.347964
v -0.848512 4.476207 -12.347964
v -0.305091 2.296885 -12.347964
v -0.848512 4.476207 -0.089097
v -0.305091 2.296885 -0.089097
v -3.391934 0.117564 -11.920084
v -3.391934 0.117564 -0.516977
v -3.391934 6.655528 -0.516977
v -3.391934 6.655528 -11.920084
v 0.238331 0.117564 -0.516977
v 0.238331 0.117564 -11.920084
v -1.391934 6.655528 -11.920084
v -1.391934 6.655528 -0.516977
v -0.305091 2.296885 -11.920084
v -0.305091 2.296885 -0.516977
v -0.848512 4.476207 -11.920084
v -0.848512 4.476207 -0.516977
v -3.391934 2.296885 -0.516977
v -3.391934 2.296885 -11.920084
v -3.391934 4.476207 -0.516977
v -3.391934 4.476207 -11.920084
v -3.391934 6.460420 -0.089097
v -3.391934 6.460420 -12.347964
v -1.343283 6.460420 -12.347964
v -1.343283 6.460420 -0.089097
v -1.343283 6.460420 -11.920084
v -1.343283 6.460420 -0.516977
v -3.391934 6.460420 -0.516977
v -3.391934 6.460420 -11.920084
v -3.391934 4.719474 -12.347964
v -0.909172 4.719474 -12.347964
v -0.909172 4.719474 -0.089097
v -0.909172 4.719474 -11.920084
v -0.909172 4.719474 -0.516977
v -3.391934 4.719474 -0.516977
v -3.391934 4.719474 -11.920084
v -3.391934 4.719474 -0.089097
v -2.973104 0.117564 -12.347964
v -3.161191 6.655528 -12.347964
v -2.973104 0.117564 -0.089097
v -3.161191 6.655528 -0.089097
v -3.035800 2.296885 -0.089097
v -3.098495 4.476207 -0.089097
v -3.035800 2.296885 -12.347964
v -3.098495 4.476207 -12.347964
v -3.161191 6.655528 -11.920084
v -3.161191 6.655528 -0.516977
v -2.973104 0.117564 -11.920084
v -2.973104 0.117564 -0.516977
v -3.155578 6.460420 -0.089097
v -3.155578 6.460420 -12.347964
v -3.105494 4.719474 -12.347964
v -3.105494 4.719474 -0.089097
v -3.118675 4.722477 -11.920084
v -3.118675 4.722477 -0.516977
v -3.391934 2.609559 -0.089097
v -3.391934 2.609559 -12.347964
v -0.383057 2.609559 -12.347964
v -0.383057 2.609559 -0.089097
v -3.391934 2.609559 -0.516977
v -3.391934 2.609559 -11.920084
v -0.383057 2.609559 -11.920084
v -0.383057 2.609559 -0.516977
v -3.044795 2.609559 -12.347964
v -3.044795 2.609559 -0.089097
v -1.676780 4.326021 -11.920084
v -1.676780 4.326021 -0.516977
v -1.494544 2.410868 -11.920084
v -1.494544 2.410868 -0.516977
v -3.391934 0.456709 -12.347964
v 0.153764 0.456709 -12.347964
v 0.153764 0.456709 -0.089097
v -3.391934 0.456709 -0.089097
v -3.391934 0.456709 -0.516977
v -3.391934 0.456709 -11.920084
v 0.153764 0.456709 -11.920084
v 0.153764 0.456709 -0.516977
v -2.982861 0.456709 -12.347964
v -2.982861 0.456709 -0.089097
v -1.093751 2.282856 -11.920084
v -1.093751 2.282856 -0.516977
v -0.894749 0.396803 -11.920084
v -0.894749 0.396803 -0.516977
vn -1.0000 -0.0000 -0.0000
vn -0.0000 -0.0000 -1.0000
vn 0.9703 0.2419 -0.0000
vn -0.0000 -0.0000 1.0000
vn -0.0000 -1.0000 -0.0000
vn -0.0000 1.0000 -0.0000
vn -0.1760 0.9844 -0.0000
vn 0.0178 -0.9998 -0.0000
vn 0.9998 0.0220 -0.0000
vn 0.0014 1.0000 -0.0000
vn 0.9955 0.0947 -0.0000
vn 0.1784 -0.9840 -0.0000
vn 0.9945 0.1049 -0.0000
vn -0.0570 0.9984 -0.0000
vt 0.125000 0.750000
vt 0.375000 0.000000
vt 0.375000 1.000000
vt 0.625000 1.000000
vt 0.875000 0.750000
vt 0.625000 0.000000
vt 0.125000 0.500000
vt 0.375000 0.250000
vt 0.875000 0.500000
vt 0.625000 0.250000
vt 0.375000 0.750000
vt 0.625000 0.750000
vt 0.375000 0.500000
vt 0.625000 0.500000
vt 0.458333 0.000000
vt 0.458333 1.000000
vt 0.541667 1.000000
vt 0.541667 0.000000
vt 0.541667 0.250000
vt 0.458333 0.250000
vt 0.541667 0.500000
vt 0.458333 0.500000
vt 0.541667 0.750000
vt 0.458333 0.750000
vt 0.125000 0.583333
vt 0.375000 0.166667
vt 0.125000 0.666667
vt 0.375000 0.083333
vt 0.875000 0.666667
vt 0.625000 0.083333
vt 0.875000 0.583333
vt 0.625000 0.166667
vt 0.375000 0.666667
vt 0.375000 0.583333
vt 0.625000 0.583333
vt 0.625000 0.666667
vt 0.458333 0.583333
vt 0.458333 0.666667
vt 0.541667 0.583333
vt 0.541667 0.666667
vt 0.458333 0.083333
vt 0.458333 0.166667
vt 0.541667 0.083333
vt 0.541667 0.166667
vt 0.617539 0.000000
vt 0.617539 1.000000
vt 0.617539 0.250000
vt 0.617539 0.500000
vt 0.617539 0.750000
vt 0.617539 0.583333
vt 0.617539 0.666667
vt 0.617539 0.083333
vt 0.617539 0.166667
vt 0.550969 0.250000
vt 0.550969 0.500000
vt 0.550969 0.750000
vt 0.550969 0.583333
vt 0.550969 0.666667
vt 0.550969 0.083333
vt 0.550969 0.166667
vt 0.550969 1.000000
vt 0.550969 0.000000
vt 0.153843 0.500000
vt 0.375000 0.278843
vt 0.846157 0.500000
vt 0.625000 0.278843
vt 0.153843 0.750000
vt 0.375000 0.971157
vt 0.846157 0.750000
vt 0.625000 0.971157
vt 0.458333 0.971157
vt 0.541667 0.971157
vt 0.458333 0.278843
vt 0.541667 0.278843
vt 0.846157 0.583333
vt 0.846157 0.666667
vt 0.153843 0.583333
vt 0.153843 0.666667
vt 0.617539 0.971157
vt 0.617539 0.278843
vt 0.550969 0.278843
vt 0.550969 0.971157
vt 0.846157 0.583333
vt 0.846157 0.666667
vt 0.470289 0.000000
vt 0.470289 1.000000
vt 0.470289 0.250000
vt 0.470289 0.500000
vt 0.470289 0.750000
vt 0.470289 0.083333
vt 0.470289 0.166667
vt 0.470289 0.583333
vt 0.470289 0.666667
vt 0.470289 0.278843
vt 0.470289 0.971157
vt 0.541667 0.583333
vt 0.541667 0.666667
vt 0.470289 0.583333
vt 0.470289 0.666667
vt 0.387968 0.250000
vt 0.387968 0.500000
vt 0.387968 0.750000
vt 0.387968 0.000000
vt 0.387968 1.000000
vt 0.387968 0.083333
vt 0.387968 0.166667
vt 0.387968 0.583333
vt 0.387968 0.666667
vt 0.387968 0.278843
vt 0.387968 0.971157
vt 0.458333 0.583333
vt 0.458333 0.666667
vt 0.387968 0.583333
vt 0.387968 0.666667
s 0
f 40/53/1 20/32/1 4/10/1 34/47/1
f 62/80/2 50/66/2 8/14/2 35/48/2
f 38/51/3 24/36/3 6/12/3 36/49/3
f 61/79/4 52/70/4 2/4/4 33/46/4
f 60/78/5 21/33/5 5/11/5 51/67/5
f 58/76/6 19/29/6 2/5/6 52/69/6
f 90/110/4 53/71/4 9/16/4 84/104/4
f 76/95/4 54/72/4 10/17/4 67/86/4
f 88/108/3 26/38/3 16/24/3 83/102/3
f 74/93/3 28/40/3 15/23/3 70/89/3
f 89/109/2 55/73/2 14/22/2 82/101/2
f 75/94/2 56/74/2 13/21/2 69/88/2
f 86/106/1 30/42/1 12/20/1 81/100/1
f 72/91/1 32/44/1 11/19/1 68/87/1
f 67/85/1 10/18/1 31/43/1 71/90/1
f 71/90/1 31/43/1 32/44/1 72/91/1
f 84/103/1 9/15/1 29/41/1 85/105/1
f 85/105/1 29/41/1 30/42/1 86/106/1
f 69/88/3 13/21/3 27/39/3 73/92/3
f 74/93/7 73/92/7 79/98/7 80/99/7
f 82/101/3 14/22/3 25/37/3 87/107/3
f 25/37/8 26/38/8 92/112/8 91/111/8
f 50/65/6 4/9/6 20/31/6 57/75/6
f 57/75/6 20/31/6 19/29/6 58/76/6
f 49/63/5 7/13/5 22/34/5 59/77/5
f 59/77/5 22/34/5 21/33/5 60/78/5
f 35/48/3 8/14/3 23/35/3 37/50/3
f 57/75/9 58/76/9 66/84/9 65/83/9
f 33/45/1 2/6/1 19/30/1 39/52/1
f 39/52/1 19/30/1 20/32/1 40/53/1
f 46/59/1 39/52/1 40/53/1 47/60/1
f 48/62/1 33/45/1 39/52/1 46/59/1
f 42/55/3 35/48/3 37/50/3 44/57/3
f 64/82/4 61/79/4 33/46/4 48/61/4
f 45/58/3 38/51/3 36/49/3 43/56/3
f 63/81/2 62/80/2 35/48/2 42/55/2
f 47/60/1 40/53/1 34/47/1 41/54/1
f 32/44/1 47/60/1 41/54/1 11/19/1
f 56/74/2 63/81/2 42/55/2 13/21/2
f 28/40/3 45/58/3 43/56/3 15/23/3
f 54/72/4 64/82/4 48/61/4 10/17/4
f 13/21/3 42/55/3 44/57/3 27/39/3
f 27/39/3 44/57/3 45/58/3 28/40/3
f 10/18/1 48/62/1 46/59/1 31/43/1
f 31/43/1 46/59/1 47/60/1 32/44/1
f 15/23/4 43/56/4 64/82/4 54/72/4
f 11/19/2 41/54/2 63/81/2 56/74/2
f 41/54/2 34/47/2 62/80/2 63/81/2
f 43/56/4 36/49/4 61/79/4 64/82/4
f 17/25/5 59/77/5 60/78/5 18/27/5
f 3/7/5 49/63/5 59/77/5 17/25/5
f 8/14/6 50/65/6 57/75/6 23/35/6
f 68/87/2 11/19/2 56/74/2 75/94/2
f 81/100/2 12/20/2 55/73/2 89/109/2
f 70/89/4 15/23/4 54/72/4 76/95/4
f 83/102/4 16/24/4 53/71/4 90/110/4
f 24/36/6 58/76/6 52/69/6 6/12/6
f 18/27/5 60/78/5 51/67/5 1/1/5
f 36/49/4 6/12/4 52/70/4 61/79/4
f 34/47/2 4/10/2 50/66/2 62/80/2
f 45/58/10 44/57/10 65/83/10 66/84/10
f 58/76/2 24/36/2 38/51/2 45/58/2 66/84/2
f 65/83/4 44/57/4 37/50/4 23/35/4 57/75/4
f 16/24/4 70/89/4 76/95/4 53/71/4
f 12/20/2 68/87/2 75/94/2 55/73/2
f 25/37/3 73/92/3 74/93/3 26/38/3
f 14/22/3 69/88/3 73/92/3 25/37/3
f 29/41/1 71/90/1 72/91/1 30/42/1
f 9/15/1 67/85/1 71/90/1 29/41/1
f 30/42/1 72/91/1 68/87/1 12/20/1
f 55/73/2 75/94/2 69/88/2 14/22/2
f 26/38/3 74/93/3 70/89/3 16/24/3
f 53/71/4 76/95/4 67/86/4 9/16/4
f 79/98/11 77/96/11 78/97/11 80/99/11
f 73/92/4 27/39/4 77/96/4 79/98/4
f 27/39/12 28/40/12 78/97/12 77/96/12
f 28/40/2 74/93/2 80/99/2 78/97/2
f 5/11/4 83/102/4 90/110/4 51/68/4
f 3/8/2 81/100/2 89/109/2 49/64/2
f 22/34/3 87/107/3 88/108/3 21/33/3
f 7/13/3 82/101/3 87/107/3 22/34/3
f 18/28/1 85/105/1 86/106/1 17/26/1
f 1/2/1 84/103/1 85/105/1 18/28/1
f 17/26/1 86/106/1 81/100/1 3/8/1
f 49/64/2 89/109/2 82/101/2 7/13/2
f 21/33/3 88/108/3 83/102/3 5/11/3
f 51/68/4 90/110/4 84/104/4 1/3/4
f 93/113/13 91/111/13 92/112/13 94/114/13
f 88/108/14 87/107/14 93/113/14 94/114/14
f 87/107/4 25/37/4 91/111/4 93/113/4
f 26/38/2 88/108/2 94/114/2 92/112/2
