# Blender 3.4.1
# www.blender.org
mtllib store_shelving_2.mtl
o Cube.019
v -3.191586 2.934602 -0.298192
v -3.191586 3.327333 -0.298192
v -3.191586 2.934602 -10.649124
v -3.191586 3.327333 -10.649124
v 3.191588 2.934602 -0.298192
v 3.191588 3.327333 -0.298192
v 3.191588 2.934602 -10.649124
v 3.191588 3.327333 -10.649124
v -2.161315 2.922023 -10.173473
v -2.161315 2.922023 -0.773843
v 2.161315 2.922023 -10.173473
v 2.161315 2.922023 -0.773843
v -2.161315 1.153771 -10.173473
v -2.161315 1.153771 -0.773843
v 2.161315 1.153771 -10.173473
v 2.161315 1.153771 -0.773843
v -0.549187 3.327321 -2.010317
v -0.549187 3.327321 -8.936998
v 0.549187 3.327321 -8.936998
v 0.549187 3.327321 -2.010317
v -0.549187 4.649125 -2.010317
v -0.549187 4.649125 -8.936998
v 0.549187 4.649125 -8.936998
v 0.549187 4.649125 -2.010317
v -1.970959 4.663439 -1.318260
v -1.970959 4.663439 -9.629055
v 1.970959 4.663439 -9.629055
v 1.970959 4.663439 -1.318260
v -1.970959 5.000968 -1.318260
v -1.970959 5.000968 -9.629055
v 1.970959 5.000968 -9.629055
v 1.970959 5.000968 -1.318260
vn -1.0000 -0.0000 -0.0000
vn -0.0000 -0.0000 -1.0000
vn 1.0000 -0.0000 -0.0000
vn -0.0000 -0.0000 1.0000
vn -0.0000 -0.9997 0.0264
vn -0.0000 1.0000 -0.0000
vn -0.0000 -0.9997 -0.0264
vn -0.0122 -0.9999 -0.0000
vn 0.0122 -0.9999 -0.0000
vn -0.0000 -1.0000 -0.0000
vn -0.0101 -0.9999 -0.0000
vn -0.0000 -0.9998 0.0207
vn -0.0000 -0.9998 -0.0207
vn 0.0101 -0.9999 -0.0000
vt 0.375000 1.000000
vt 0.375000 0.000000
vt 0.625000 0.000000
vt 0.625000 1.000000
vt 0.375000 0.250000
vt 0.625000 0.250000
vt 0.375000 0.750000
vt 0.625000 0.750000
vt 0.375000 0.500000
vt 0.625000 0.500000
vt 0.375000 0.250000
vt 0.375000 0.000000
vt 0.375000 1.000000
vt 0.375000 0.500000
vt 0.375000 0.750000
vt 0.125000 0.500000
vt 0.375000 0.250000
vt 0.125000 0.750000
vt 0.375000 0.000000
vt 0.375000 1.000000
vt 0.375000 0.500000
vt 0.375000 0.750000
vt 0.625000 0.000000
vt 0.625000 1.000000
vt 0.625000 0.250000
vt 0.625000 0.500000
vt 0.625000 0.750000
vt 0.625000 0.000000
vt 0.625000 1.000000
vt 0.625000 0.250000
vt 0.625000 0.500000
vt 0.625000 0.750000
vt 0.625000 1.000000
vt 0.625000 0.000000
vt 0.625000 0.250000
vt 0.625000 0.500000
vt 0.625000 0.750000
vt 0.625000 1.000000
vt 0.875000 0.750000
vt 0.625000 0.000000
vt 0.875000 0.500000
vt 0.625000 0.250000
vt 0.625000 0.500000
vt 0.625000 0.750000
s 0
f 1/2/1 2/3/1 4/6/1 3/5/1
f 3/5/2 4/6/2 8/10/2 7/9/2
f 7/9/3 8/10/3 6/8/3 5/7/3
f 5/7/4 6/8/4 2/4/4 1/1/4
f 5/7/5 1/1/5 10/13/5 12/15/5
f 6/8/6 8/10/6 19/26/6 20/27/6
f 11/14/3 12/15/3 16/22/3 15/21/3
f 3/5/7 7/9/7 11/14/7 9/11/7
f 1/2/8 3/5/8 9/11/8 10/12/8
f 7/9/9 5/7/9 12/15/9 11/14/9
f 13/16/10 15/21/10 16/22/10 14/18/10
f 10/12/1 9/11/1 13/17/1 14/19/1
f 12/15/4 10/13/4 14/20/4 16/22/4
f 9/11/2 11/14/2 15/21/2 13/17/2
f 20/27/3 19/26/3 23/31/3 24/32/3
f 4/6/6 2/3/6 17/23/6 18/25/6
f 2/4/6 6/8/6 20/27/6 17/24/6
f 8/10/6 4/6/6 18/25/6 19/26/6
f 22/30/11 21/28/11 25/34/11 26/35/11
f 18/25/1 17/23/1 21/28/1 22/30/1
f 17/24/4 20/27/4 24/32/4 21/29/4
f 19/26/2 18/25/2 22/30/2 23/31/2
f 25/33/4 28/37/4 32/44/4 29/38/4
f 21/29/12 24/32/12 28/37/12 25/33/12
f 23/31/13 22/30/13 26/35/13 27/36/13
f 24/32/14 23/31/14 27/36/14 28/37/14
f 31/43/6 30/41/6 29/39/6 32/44/6
f 27/36/2 26/35/2 30/42/2 31/43/2
f 28/37/3 27/36/3 31/43/3 32/44/3
f 26/35/1 25/34/1 29/40/1 30/42/1
